:version 1.10
:name ASF
:units
  mass 1
  length 1
  angle deg
:documentation
  ASF file generated by Kaydara
:root
  axis xyz
  order  tx ty tz rx ry rz
  position 0 0 0
  orientation 0 0 0
:bonedata
  begin
    id 1
    name SpineDummy
    direction 0.999998 -0.00179978 1.38929e-006
    length 3.60008
    axis 0 0 0 xyz
  end
  begin
    id 2
    name Spine
    direction 0.964365 0.262802 0.0305839
    length 8.13928
    axis 1.33928 -1.75354 15.2838 xyz
    dof rx ry rz
  end
  begin
    id 3
    name Spine1
    direction 0.811168 0.572065 0.12144
    length 7.14954
    axis 2.2224 -6.9761 35.2157 xyz
    dof rx ry rz
  end
  begin
    id 4
    name Neck
    direction 0 0 0
    length 0
    axis 2.2224 -6.9761 35.2157 xyz
    dof rx ry rz
  end
  begin
    id 5
    name HeadDummy
    direction 0.810939 0.572387 0.121455
    length 3.55534
    axis 2.2224 -6.9761 35.2157 xyz
  end
  begin
    id 6
    name Head
    direction 0.998226 -0.000232542 0.0595419
    length 7.35666
    axis -3.03688 -3.41352 -0.0133467 xyz
    dof rx ry rz
  end
  begin
    id 7
    name R_ClavicleDummy
    direction 0.531669 -0.194489 -0.824319
    length 2.49392
    axis 2.2224 -6.9761 35.2157 xyz
  end
  begin
    id 8
    name R_Clavicle
    direction -0.155119 0.0480802 -0.986725
    length 4.485
    axis -54.2764 80.6538 162.779 xyz
    dof rx ry rz
  end
  begin
    id 9
    name R_UpperArm
    direction -0.955567 0.200068 -0.216484
    length 10.1122
    axis -72.9943 12.5026 168.175 xyz
    dof rx ry rz
  end
  begin
    id 10
    name R_Forearm
    direction -0.61433 0.385743 0.688332
    length 9.39148
    axis -117.015 -43.4982 147.875 xyz
    dof rx ry rz
  end
  begin
    id 11
    name R_Hand
    direction -0.699429 0.0170333 0.714499
    length 3.66324
    axis -45.0303 -36.7097 175.478 xyz
    dof rx ry rz
  end
  begin
    id 12
    name L_ClavicleDummy
    direction 0.40287 -0.36502 0.839319
    length 2.49392
    axis 2.2224 -6.9761 35.2157 xyz
  end
  begin
    id 13
    name L_Clavicle
    direction -0.231271 -0.0726419 0.970174
    length 4.485
    axis 18.4357 -75.9711 -162.563 xyz
    dof rx ry rz
  end
  begin
    id 14
    name L_UpperArm
    direction -0.917494 0.144359 0.370629
    length 10.1122
    axis 56.0417 -21.7544 171.058 xyz
    dof rx ry rz
  end
  begin
    id 15
    name L_Forearm
    direction -0.496786 0.615074 -0.612281
    length 9.39148
    axis 89.8094 37.7546 128.927 xyz
    dof rx ry rz
  end
  begin
    id 16
    name L_Hand
    direction -0.409932 0.64962 -0.640274
    length 3.66324
    axis -0.424369 32.133 128.52 xyz
    dof rx ry rz
  end
  begin
    id 17
    name L_ThighDummy
    direction -1.84081e-006 1.87549e-006 1
    length 3.13049
    axis 0 0 0 xyz
  end
  begin
    id 18
    name L_Thigh
    direction -0.947739 0.307978 0.083308
    length 17.9961
    axis 173.219 -4.77873 161.998 xyz
    dof rx ry rz
  end
  begin
    id 19
    name L_Calf
    direction -0.728814 -0.684427 0.0197583
    length 13.3367
    axis 167.331 -1.13214 -136.799 xyz
    dof rx ry rz
  end
  begin
    id 20
    name L_Foot
    direction -0.9028 0.418719 0.0981191
    length 5.8674
    axis 163.436 11.5135 -155.37 xyz
    dof rx ry rz
  end
  begin
    id 21
    name L_Toe0
    direction -0.35341 0.886259 0.299411
    length 4.75286
    axis 169.316 -17.4222 111.74 xyz
    dof rx ry rz
  end
  begin
    id 22
    name R_ThighDummy
    direction 9.32778e-007 -8.82053e-007 -1
    length 3.13049
    axis 0 0 0 xyz
  end
  begin
    id 23
    name R_Thigh
    direction -0.925064 0.37528 -0.0585023
    length 17.9961
    axis -178.698 3.35385 157.919 xyz
    dof rx ry rz
  end
  begin
    id 24
    name R_Calf
    direction -0.68969 -0.718776 -0.0876886
    length 13.3367
    axis -160.504 5.03065 -133.817 xyz
    dof rx ry rz
  end
  begin
    id 25
    name R_Foot
    direction -0.857405 0.418858 -0.299022
    length 5.8674
    axis -161.328 4.38911 -154.413 xyz
    dof rx ry rz
  end
  begin
    id 26
    name R_Toe0
    direction -0.100745 0.952789 -0.286433
    length 4.75286
    axis 171.683 16.6445 96.0359 xyz
    dof rx ry rz
  end
:hierarchy
  begin
    root SpineDummy L_ThighDummy R_ThighDummy
    SpineDummy Spine
    Spine Spine1
    Spine1 Neck
    Neck HeadDummy R_ClavicleDummy L_ClavicleDummy
    HeadDummy Head
    R_ClavicleDummy R_Clavicle
    R_Clavicle R_UpperArm
    R_UpperArm R_Forearm
    R_Forearm R_Hand
    L_ClavicleDummy L_Clavicle
    L_Clavicle L_UpperArm
    L_UpperArm L_Forearm
    L_Forearm L_Hand
    L_ThighDummy L_Thigh
    L_Thigh L_Calf
    L_Calf L_Foot
    L_Foot L_Toe0
    R_ThighDummy R_Thigh
    R_Thigh R_Calf
    R_Calf R_Foot
    R_Foot R_Toe0
  end

:SAMPLES-PER-SECOND 30
:FULLY-SPECIFIED
:DEGREES
22
root  -4.47809 31.8752 8.32417 -69.5163 -0.184073 86.0553
Spine  1.87442 -0.466143 -10.4235
Spine1  1.61171 -0.813762 -4.34304
Neck  3.97569e-016 0 -2.38542e-015
Head  -16.465 -0.161411 22.6766
R_Clavicle  0.408008 -16.8076 1.85954
R_UpperArm  27.1914 -2.71961 26.9621
R_Forearm  14.2002 -30.5945 21.2858
R_Hand  -0.96521 8.92925 -18.8084
L_Clavicle  -0.492259 18.5852 1.52477
L_UpperArm  -16.2445 12.2665 28.2046
L_Forearm  13.421 40.7641 41.8529
L_Hand  0.066962 1.54829 1.15007
L_Thigh  -10.2988 -5.76826 -7.69095
L_Calf  -0.552997 -1.66646 12.4188
L_Foot  7.04139 11.6623 13.3787
L_Toe0  -0.109179 0.00946772 0.243623
R_Thigh  18.1031 -5.98975 -2.78795
R_Calf  4.43555 0.310749 0.930789
R_Foot  1.0969 0.999555 -7.8028
R_Toe0  6.92761 -2.49751 2.25486
23
root  -4.59965 32.1047 7.89834 -69.1807 -0.451818 86.1482
Spine  1.61416 -0.714187 -10.7652
Spine1  1.30634 -0.156045 -4.6295
Neck  3.97569e-016 0 -2.38542e-015
Head  -16.9738 0.281808 23.2065
R_Clavicle  0.412547 -17.3677 1.92754
R_UpperArm  28.3849 -3.54719 28.1479
R_Forearm  14.0435 -30.9813 21.3969
R_Hand  -1.02321 9.03931 -19.2061
L_Clavicle  -0.488333 18.4232 1.58808
L_UpperArm  -14.4524 12.1843 28.5872
L_Forearm  11.891 40.0706 40.9791
L_Hand  0.0628677 1.5904 1.07991
L_Thigh  -10.0116 -5.37672 -9.07225
L_Calf  -0.26104 -1.82927 13.6542
L_Foot  6.53367 11.4801 12.005
L_Toe0  0.182797 -0.0305381 0.715403
R_Thigh  16.6721 -5.32343 -2.02323
R_Calf  3.02394 0.430864 1.29964
R_Foot  1.1061 1.5758 -6.58833
R_Toe0  4.25715 -1.12469 -4.41037
24
root  -4.69846 32.3912 7.46653 -68.842 -0.496603 86.4072
Spine  1.27834 -0.8475 -11.2986
Spine1  0.950646 0.499577 -5.0767
Neck  3.97569e-016 0 -2.38542e-015
Head  -17.3384 0.607267 23.7659
R_Clavicle  0.412168 -17.673 1.90356
R_UpperArm  30.0634 -4.68621 29.3283
R_Forearm  12.7321 -31.87 21.593
R_Hand  -0.997818 8.89971 -19.0097
L_Clavicle  -0.484938 18.1955 1.58786
L_UpperArm  -13.214 12.2139 28.6174
L_Forearm  10.5091 39.4232 40.3783
L_Hand  0.0569229 1.58072 0.986073
L_Thigh  -10.0689 -4.78246 -10.3345
L_Calf  0.465575 -2.05786 15.3808
L_Foot  5.91605 11.4176 10.135
L_Toe0  0.581499 -0.0965862 1.49444
R_Thigh  15.548 -4.50943 -1.10992
R_Calf  1.6491 1.16317 3.56477
R_Foot  1.15856 1.92283 -6.30028
R_Toe0  1.68029 -0.468318 -7.73585
25
root  -4.77831 32.6969 7.04219 -68.5575 -0.378217 86.7306
Spine  0.875299 -0.878796 -11.7642
Spine1  0.545738 1.05128 -5.80428
Neck  3.97569e-016 0 -2.38542e-015
Head  -17.3876 0.783613 24.2327
R_Clavicle  0.410434 -17.9011 1.84709
R_UpperArm  32.0471 -5.87941 30.5164
R_Forearm  10.5652 -33.2155 21.9141
R_Hand  -0.912229 8.63511 -18.34
L_Clavicle  -0.482622 17.9533 1.51396
L_UpperArm  -12.6657 12.2529 28.3228
L_Forearm  9.32722 38.9861 40.078
L_Hand  0.0382128 1.76725 0.678724
L_Thigh  -10.5562 -4.08035 -11.5235
L_Calf  1.4842 -2.32864 17.436
L_Foot  5.28044 11.5572 7.97813
L_Toe0  0.884102 -0.168941 2.56803
R_Thigh  14.7153 -3.71388 -0.073845
R_Calf  1.06118 2.39456 7.39497
R_Foot  1.23466 1.99592 -6.9342
R_Toe0  -0.562101 -0.156689 -9.59465
26
root  -4.85698 32.987 6.63033 -68.3041 -0.176058 86.9957
Spine  0.359617 -0.867762 -12.1195
Spine1  0.0486915 1.53989 -6.6192
Neck  3.97569e-016 0 -2.38542e-015
Head  -17.2467 0.885404 24.4978
R_Clavicle  0.410522 -18.1291 1.83278
R_UpperArm  33.9683 -6.89236 31.6396
R_Forearm  8.16996 -34.8096 22.3762
R_Hand  -0.818625 8.52561 -17.6211
L_Clavicle  -0.481082 17.7701 1.43252
L_UpperArm  -12.2744 12.1588 27.7419
L_Forearm  7.91113 38.6341 39.8577
L_Hand  0.00729732 2.08951 0.206938
L_Thigh  -11.0007 -3.54209 -12.8148
L_Calf  2.27257 -2.64741 19.8655
L_Foot  4.71055 11.6492 6.06853
L_Toe0  1.11388 -0.220951 3.05324
R_Thigh  14.2819 -3.16959 0.921223
R_Calf  0.924907 3.98316 12.4045
R_Foot  1.35586 2.37836 -7.31741
R_Toe0  -2.71303 -0.0585488 -13.3206
27
root  -4.95522 33.2087 6.22666 -68.1276 0.175561 87.0325
Spine  -0.231437 -1.03357 -12.6523
Spine1  -0.502764 2.06128 -7.11647
Neck  3.97569e-016 0 -2.38542e-015
Head  -16.9678 0.871204 24.5181
R_Clavicle  0.411586 -18.1847 1.85649
R_UpperArm  35.732 -7.76296 32.5868
R_Forearm  5.87969 -36.3439 22.9876
R_Hand  -0.73807 8.60547 -17.041
L_Clavicle  -0.479768 17.6374 1.37549
L_UpperArm  -11.1594 11.8945 26.864
L_Forearm  5.76978 38.0185 39.4036
L_Hand  -0.0240725 2.35811 -0.237516
L_Thigh  -11.3359 -3.43233 -14.3413
L_Calf  2.73317 -3.00815 22.7522
L_Foot  4.33905 11.7107 4.81963
L_Toe0  1.21862 -0.229514 2.83064
R_Thigh  14.1489 -3.07833 1.84404
R_Calf  0.414546 5.76412 18.1663
R_Foot  1.41934 2.57838 -7.53121
R_Toe0  -2.52857 -0.257235 -16.9864
28
root  -5.07992 33.3117 5.81383 -68.2237 0.72098 86.7057
Spine  -0.747488 -1.53514 -13.4482
Spine1  -0.967459 2.56933 -7.23617
Neck  3.97569e-016 0 -2.38542e-015
Head  -16.3642 0.652856 24.3356
R_Clavicle  0.411543 -18.0894 1.86201
R_UpperArm  37.2676 -8.55162 33.4954
R_Forearm  3.95743 -37.5208 23.6797
R_Hand  -0.661113 8.66839 -16.4887
L_Clavicle  -0.477808 17.4559 1.2952
L_UpperArm  -8.89745 11.532 25.6433
L_Forearm  2.81337 36.9316 38.6504
L_Hand  -0.0522554 2.54491 -0.620114
L_Thigh  -12.1079 -3.72885 -16.198
L_Calf  3.35529 -3.48006 25.9537
L_Foot  4.26875 12.1088 4.23617
L_Toe0  1.00766 -0.194219 2.76251
R_Thigh  13.5405 -3.35451 2.76502
R_Calf  -0.601245 7.54277 24.1504
R_Foot  1.33964 1.80157 -8.49025
R_Toe0  -1.72464 -0.275418 -17.3799
29
root  -5.22138 33.2821 5.37677 -68.6868 1.27351 86.0945
Spine  -1.10909 -2.19215 -14.1606
Spine1  -1.282 2.98784 -7.28148
Neck  3.97569e-016 0 -2.38542e-015
Head  -15.3319 0.27182 23.985
R_Clavicle  0.410004 -18.1443 1.81774
R_UpperArm  38.3382 -9.14182 34.6733
R_Forearm  2.92891 -38.1502 24.2399
R_Hand  -0.581833 8.63882 -15.8927
L_Clavicle  -0.474842 17.2104 1.17357
L_UpperArm  -5.61662 11.0713 24.0695
L_Forearm  -0.804611 35.4026 37.7799
L_Hand  -0.0929574 2.70734 -1.16237
L_Thigh  -12.2847 -4.16456 -18.4037
L_Calf  3.35723 -4.71422 29.0745
L_Foot  4.45006 12.5518 4.4201
L_Toe0  0.78912 -0.157414 2.6571
R_Thigh  11.64 -3.66083 3.66796
R_Calf  -1.17898 9.16902 29.9187
R_Foot  1.21115 0.628882 -9.6574
R_Toe0  -1.78851 -0.272787 -17.3235
